<?xml version="1.0" encoding="utf-8"?>
<!-- Generator: Adobe Illustrator 24.3.0, SVG Export Plug-In . SVG Version: 6.00 Build 0)  -->
<svg version="1.1" id="Layer_1" xmlns="http://www.w3.org/2000/svg" xmlns:xlink="http://www.w3.org/1999/xlink" x="0px" y="0px"
	 viewBox="0 0 500 500" style="enable-background:new 0 0 500 500;" xml:space="preserve">
<g>
	<path style="fill:#A3DB59;" d="M487.6,73.4c0-31.8-20.5-55.8-52.3-61.5c-0.6-0.1-1.1-0.5-1.7-0.7H65.2c-4,1-8.2,1.7-12,3.1
		C30.4,22.6,16.5,38.6,12,62.5c-0.2,0.9-0.6,1.7-0.9,2.6v368.5c1.1,4.2,1.9,8.4,3.3,12.5c8.5,24.8,30.8,41.1,57.1,41.4
		c21.4,0.2,42.8,0.1,64.2,0.1c96.4,0,192.8,0,289.3,0c28.8,0,52.9-17.6,60.1-44.2c1.6-5.8,2.4-11.9,2.4-17.9
		C487.6,308.1,487.6,190.8,487.6,73.4z M160.9,69.8c37.2-0.2,67.9,30.3,68,67.6c0,37.3-30.5,67.7-67.8,67.6
		c-37.3-0.1-67.3-30.2-67.5-67.5C93.4,100.5,123.7,70,160.9,69.8z M459.5,425.6c-0.1,20.3-14.5,33.9-35.2,33.9
		c-58.3,0-116.6,0-174.9,0c-58.1,0-116.3,0-174.4,0c-14.4,0-25.8-5.3-32.2-18.6c-2.2-4.7-3.4-10.4-3.5-15.7c-0.5-15.5-0.3-31,0-46.5
		c0-1.8,1.1-4.2,2.5-5.4c29.2-25,58.5-49.9,87.8-74.8c6.2-5.2,9.6-5.2,15.9,0.1c17.5,14.6,35,29.1,52.6,43.7
		c9.7,8.1,15.7,7.8,24.6-1.1c43.7-43.8,87.4-87.5,131.1-131.3c1-1,1.9-2,3-2.9c5.1-4.7,10.4-4.5,14.8,0.9
		c28.8,35.3,57.5,70.7,86.1,106.2c1.1,1.3,1.7,3.3,1.7,5C459.6,354.6,459.8,390.1,459.5,425.6z"/>
	<path d="M459.5,425.6c-0.1,20.3-14.5,33.9-35.2,33.9c-58.3,0-116.6,0-174.9,0c-58.1,0-116.3,0-174.4,0c-14.4,0-25.8-5.3-32.2-18.6
		c-2.2-4.7-3.4-10.4-3.5-15.7c-0.5-15.5-0.3-31,0-46.5c0-1.8,1.1-4.2,2.5-5.4c29.2-25,58.5-49.9,87.8-74.8c6.2-5.2,9.6-5.2,15.9,0.1
		c17.5,14.6,35,29.1,52.6,43.7c9.7,8.1,15.7,7.8,24.6-1.1c43.7-43.8,87.4-87.5,131.1-131.3c1-1,1.9-2,3-2.9
		c5.1-4.7,10.4-4.5,14.8,0.9c28.8,35.3,57.5,70.7,86.1,106.2c1.1,1.3,1.7,3.3,1.7,5C459.6,354.6,459.8,390.1,459.5,425.6z"/>
	<path d="M228.8,137.4c0,37.3-30.5,67.7-67.8,67.6c-37.3-0.1-67.3-30.2-67.5-67.5c-0.1-37,30.2-67.5,67.3-67.7
		C198.1,69.6,228.8,100.1,228.8,137.4z"/>
</g>
</svg>
