<?xml version="1.0" encoding="utf-8"?>
<!-- Generator: Adobe Illustrator 24.3.0, SVG Export Plug-In . SVG Version: 6.00 Build 0)  -->
<svg version="1.1" id="Layer_1" xmlns="http://www.w3.org/2000/svg" xmlns:xlink="http://www.w3.org/1999/xlink" x="0px" y="0px"
	 viewBox="0 0 114 114" style="enable-background:new 0 0 114 114;" xml:space="preserve">
<path style="fill:#a3db59;" d="M111.8,109.1c-0.1-0.8-0.1-1.6-0.2-2.4C110.4,92.5,100,80.4,86.1,77c-4.4-1.1-8.9-1-13.4-1
	c-1.7,0-3-0.9-4.5-1.5c0-1-0.1-2-0.1-3.1c0-0.1-0.1-0.3,0-0.4c0.2-0.4,0.3-0.9,0.6-1.1c4.3-2.7,7.5-6.3,9.5-11
	c0.2-0.6,0.5-0.7,1.1-0.7c1.5,0,3,0.1,4.5-0.3c5.3-1.1,8.8-4.4,10-9.7c1.2-5.3-0.6-9.6-4.9-12.9c-0.5-0.4-0.7-0.8-0.7-1.4
	c-0.1-1.7-0.1-3.4-0.4-5C85.3,10.7,67-1.5,49.1,3.2c-14,3.7-23.4,15.9-23.5,30.5c0,0.8-0.2,1.3-0.9,1.9c-4,3.2-5.8,7.4-4.8,12.4
	c1,5.2,4.3,8.6,9.5,9.9c1.6,0.4,3.4,0.3,5.1,0.4c0.4,0,0.9,0.3,1,0.6c2,4.7,5.2,8.4,9.6,11c0.2,0.1,0.6,0.4,0.6,0.6
	c0,1.2,0,2.5,0,3.7c0,0.1-0.1,0.3-0.2,0.3c-1.4,0.5-2.8,1.2-4.2,1.3c-3.3,0.3-6.6,0-9.8,0.4C18.2,78,6.9,87.7,3.3,100.6
	c-0.6,2.2-0.9,4.5-1.3,6.7v4.7c0,0,0.1,0,0.1,0h45.8c0.2-0.1,0.4-0.3,0.6-0.4c0.7-0.6,1.1-1.3,0.8-2.3c-0.3-1-0.9-1.5-1.9-1.6
	c-0.4,0-0.7,0-1.1,0H6.5C6.8,94.4,19,80.8,34,80.5c0.5,1,0.9,2,1.5,2.9c3,4.4,6,8.8,9,13.2c1.3,1.9,2.5,2,4.2,0.4
	c2.7-2.7,5.4-5.5,8.5-8.5c0.2,0.4,0.3,0.8,0.6,1.1c2.5,2.5,5,5.1,7.6,7.6c1.4,1.4,2.7,1.3,3.8-0.3c3.2-4.7,6.5-9.5,9.7-14.3
	c0.4-0.6,0.5-1.3,0.8-2c12.5-0.1,26.8,11,27.7,27.2h-1.3c-13,0-25.9,0-38.9,0c-1,0-1.9,0.1-2.5,1.1c-0.7,1.1-0.2,2.2,1.2,3.2h44.4
	C111.5,111.4,112,110.4,111.8,109.1z M88.3,40.8c2,2.7,2.1,6.4,0.3,9.2c-1.7,2.9-5,4.4-8.5,4V37.3C83.5,37,86.2,38,88.3,40.8z
	 M33.8,53.8c-2.5,0.8-6.2-0.7-8.1-3.2c-2.1-2.8-2.2-6.6-0.3-9.5c1.8-2.8,5.3-4.4,8.4-3.7V53.8z M33.8,32.9c-1.2,0.1-2.5,0.1-3.9,0.2
	c0.4-8.9,3.8-16.1,11-21.3c9.3-6.7,19.2-7.3,29.2-1.8c9.8,5.3,13.8,15.5,13.6,23.1C82.5,33,81.2,33,80,32.9
	c-0.4-12.9-11.6-22-22.9-22.2C46.1,10.6,34.2,19.6,33.8,32.9z M75.7,35.6c-4.2-0.6-7.7-2-10.9-4.2c-0.3-0.2-0.5-0.4-0.8-0.6
	c-1.4-1-2.1-1-3.5,0c-3.2,2.3-6.6,3.9-10.5,4.6C46.4,36,42.7,36,39,35.1c-0.7-0.1-0.8-0.4-0.8-1.1c-0.1-9.8,7.3-18,17.2-18.9
	c9.6-0.9,18.5,6.1,20,15.7C75.6,32.3,75.6,33.9,75.7,35.6z M38.1,50.6c-0.2-3.7,0-7.4,0-10.9c3.2,0.1,6.3,0.4,9.4,0.3
	c5.1-0.2,9.7-1.9,14-4.7c0.6-0.4,1-0.4,1.6,0c3.6,2.4,7.5,3.9,11.7,4.5c0.5,0.1,1,0.1,1,0.8c-0.1,4-0.1,7.9-0.2,11.9
	c0,0.9-0.4,1.9-0.6,2.8C74.9,55.9,74.6,56,74,56c-2.9,0-5.9,0-8.8,0c-0.3,0-0.8-0.3-1-0.6c-1.3-2.5-3.4-3.8-6.3-3.7
	c-0.9,0-1.8,0-2.7,0c-3.5,0.1-6.2,3-6.2,6.5c0,3.5,2.8,6.3,6.2,6.4c1,0,2.1,0,3.1,0c2.6-0.1,4.5-1.2,5.7-3.5
	c0.3-0.6,0.6-0.8,1.3-0.8c2.3,0,4.7,0,7,0c0.1,0.1,0.1,0.2,0.2,0.3c-1.1,1.2-2,2.5-3.2,3.5c-5.9,5.1-12.6,6.4-19.8,3.4
	C42.4,64.4,38.5,58.5,38.1,50.6z M58.7,56c1.1,0.1,1.9,1.1,1.9,2.2c0,1.1-0.8,2-1.9,2.1c-1.1,0.1-2.2,0.1-3.3,0
	c-1.1-0.1-1.9-1-1.9-2.1c0-1.1,0.8-2.1,1.9-2.2c0.6-0.1,1.1,0,1.7,0c0,0,0,0,0,0C57.6,56,58.2,56,58.7,56z M46.9,92.5
	c-2.3-3.4-4.7-6.9-7.2-10.5c2.5-1.1,4.8-2.1,7.1-3.2c2.3,2.3,4.6,4.6,6.9,6.9C51.4,87.9,49.2,90.1,46.9,92.5z M56.9,82.6
	c-2.2-2.2-4.4-4.4-6.5-6.6c-0.2-0.2-0.3-0.6-0.3-1c0-0.9,0-1.8,0-2.9c4.6,1.3,9.1,1.3,13.7,0c0,1.1,0,2.1,0,3.1
	c0,0.2-0.1,0.5-0.3,0.7C61.3,78.2,59.1,80.4,56.9,82.6z M66.9,92.5c-2.3-2.3-4.5-4.6-7-7c0.7-0.6,1.5-1.3,2.2-2
	c1.4-1.4,2.8-2.8,4.2-4.2c0.2-0.2,0.7-0.4,0.9-0.3c2.3,1,4.5,2,6.9,3C71.7,85.5,69.3,89,66.9,92.5z"/>
<path style="fill:#a3db59;" d="M58.1,111.6c-0.2,0.1-0.3,0.2-0.5,0.4h-1.3c-0.2-0.1-0.3-0.2-0.5-0.4c-0.8-0.6-1.2-1.4-0.9-2.4
	c0.3-1,1-1.5,2.1-1.5c1,0,1.7,0.6,2,1.5C59.3,110.2,58.9,111,58.1,111.6z"/>
</svg>
